<svg
    xmlns="http://www.w3.org/2000/svg"
    xmlns:xlink="http://www.w3.org/1999/xlink"
    viewBox="0 0 1000 1000"
    height="280"
    width="280"
    style="
    fill-rule: evenodd; 
    clip-rule: evenodd; 
    stroke-linejoin: round; 
    stroke-miterlimit: 2; 
    height: 280px; 
    width: 280px; 
    ">
    <rect
        x="0"
        y="0"
        width="1000"
        height="1000"
        style="fill: none;"
    ></rect>
    <path
        transform="matrix(0.900413,0,0,0.900413,66.7667,73.3054)"
        d="M265.435,317.12C205.435,263.786 166.768,303.786 166.768,303.786C166.768,303.786 120.101,255.786 164.101,195.786C208.101,135.786 342.185,201.12 342.185,201.12L413.435,153.12C400.101,71.786 342.185,63.786 342.185,63.786C416.268,41.12 428.101,93.12 438.768,151.786C449.435,210.453 481.15,223.786 481.15,223.786L366.768,246.453L288.101,321.12L288.101,420.703C288.101,420.703 342.768,489.12 342.185,551.786C341.601,614.453 390.768,639.786 390.768,639.786C362.768,729.12 432.101,777.12 432.101,777.12L356.101,845.12C233.435,821.12 190.768,759.786 190.768,703.786C190.768,647.786 165.435,565.536 165.435,565.536C165.435,565.536 162.768,543.786 152.101,482C141.435,420.214 265.435,317.12 265.435,317.12ZM697.715,317.12C697.715,317.12 821.715,420.214 811.048,482C800.382,543.786 797.715,565.536 797.715,565.536C797.715,565.536 772.382,647.786 772.382,703.786C772.382,759.786 729.715,821.12 607.049,845.12L531.048,777.12C531.048,777.12 600.382,729.12 572.382,639.786C572.382,639.786 621.548,614.453 620.965,551.786C620.382,489.12 675.048,420.703 675.048,420.703L675.048,321.12L596.382,246.453L482,223.786C482,223.786 513.715,210.453 524.382,151.786C535.048,93.12 546.882,41.12 620.965,63.786C620.965,63.786 563.048,71.786 549.715,153.12L620.965,201.12C620.965,201.12 755.048,135.786 799.048,195.786C843.048,255.786 796.382,303.786 796.382,303.786C796.382,303.786 757.715,263.786 697.715,317.12Z"
        style="fill: rgb(73, 213, 0);"
    ></path>
    <path
        transform="matrix(0.900413,0,0,0.900413,66.7667,73.3054)"
        d="M481.15,223.786C424.935,223.786 287.935,268.036 271.935,370.036C255.935,472.036 319.935,494.036 323.935,544.036C327.935,594.036 380.935,599.036 385.935,650.036C390.935,701.036 405.365,765.036 481.15,765.036C556.935,765.036 576.935,654.036 576.935,654.036C576.935,654.036 626.935,587.036 626.935,530.036C626.935,473.036 682.935,461.036 682.935,360.036C682.935,259.036 564.365,223.786 481.15,223.786Z"
        style="fill: rgb(255, 232, 210);"
    ></path>
    <path
        transform="matrix(0.900413,0,0,0.900413,66.7667,107.934)"
        d="M458.685,353.37L458.185,399.286L423.685,430.286L422.685,383.286L458.685,353.37ZM504,353.37L540,383.286L539,430.286L504.5,399.286L504,353.37Z"
        style="fill: rgb(253, 192, 98);"
    ></path>
    <path
        transform="matrix(0.900413,0,0,0.900413,66.7667,73.3054)"
        d="M458.685,353.37L458.185,399.286L423.685,430.286L422.685,383.286L458.685,353.37ZM504,353.37L540,383.286L539,430.286L504.5,399.286L504,353.37Z"
        style="fill: rgb(250, 167, 25);"
    ></path>
    <path
        transform="matrix(0.900413,0,0,0.900413,66.7667,73.3054)"
        d="M590.185,500L610.185,516.671L621.185,549.036L565.685,565.536L553.185,552.536L590.185,500ZM373.185,500L410.185,552.536L397.685,565.536L342.185,549.036L353.185,516.671L373.185,500Z"
        style="fill: rgb(160, 74, 35);"
    ></path>
    <path
        transform="matrix(0.900413,0,0,0.900413,66.7667,73.3054)"
        d="M428.601,353.37L428.268,455.37L419.935,453.37L416.601,371.37L428.601,353.37ZM534.601,353.37L546.601,371.37L543.268,453.37L534.935,455.37L534.601,353.37Z"
        style="fill: rgb(244, 117, 32);"
    ></path>
    <path
        transform="matrix(0.900413,0,0,0.900413,66.0011,73.3054)"
        d="M482,395.286L457.557,420.703L457.557,369.286L482,325.786L506.443,369.286L506.443,420.703L482,395.286ZM462.057,303.286L459.557,360.286L393.557,303.286L462.057,303.286ZM339.557,235.036C241.557,210.036 228.057,236.036 228.057,236.036L204.557,231.536C213.557,213.036 227.057,203.036 259.557,200.036C292.057,197.036 339.557,235.036 339.557,235.036ZM240.52,116.536C222.836,110.891 283.057,128.036 305.557,123.036C328.057,118.036 366.557,145.536 366.557,145.536L375.557,161.536C375.557,161.536 368.557,158.536 345.057,157.036C321.557,155.536 270.557,150.536 260.057,140.036C249.557,129.536 251.484,120.036 240.52,116.536ZM259.557,341.036C259.557,341.036 265.057,360.536 220.057,386.536C175.057,412.536 146.057,429.036 150.057,458.536L81.921,518.536C81.921,518.536 54.557,468.536 122.057,406.536C189.557,344.536 259.557,341.036 259.557,341.036ZM281.057,470.036C273.557,507.036 206.557,538.036 176.057,559.036C145.557,580.036 139.557,607.036 139.557,607.036C139.557,607.036 119.557,585.036 127.057,555.536C134.557,526.036 183.557,525.536 217.557,518.536C251.557,511.536 281.057,470.036 281.057,470.036ZM417.86,458.579L422.557,518.536L438.057,538.536L430.057,553.036L406.557,554.036L366.557,518.536L417.86,458.579ZM269.557,538.536L268.057,588.536C268.057,588.536 206.557,634.536 218.057,715.536C218.057,715.536 189.874,662.536 203.216,615.536C216.557,568.536 269.557,538.536 269.557,538.536ZM326.057,647.536C330.057,666.536 322.057,718.036 336.057,766.036C350.057,814.036 402.307,863.536 402.307,863.536L341.057,830.536C341.057,830.536 291.557,767.536 289.557,731.036C287.557,694.536 326.057,647.536 326.057,647.536ZM500.85,301.37L572.477,303.753L506.443,349.786L500.85,301.37ZM624.443,235.036C624.443,235.036 671.943,197.036 704.443,200.036C736.943,203.036 750.443,213.036 759.443,231.536L735.943,236.036C735.943,236.036 722.443,210.036 624.443,235.036ZM723.48,116.536C712.516,120.036 714.443,129.536 703.943,140.036C693.443,150.536 642.443,155.536 618.943,157.036C595.443,158.536 588.443,161.536 588.443,161.536L597.443,145.536C597.443,145.536 635.943,118.036 658.443,123.036C680.943,128.036 741.164,110.891 723.48,116.536ZM704.443,341.036C704.443,341.036 774.443,344.536 841.943,406.536C909.443,468.536 882.079,518.536 882.079,518.536L813.943,458.536C817.943,429.036 788.943,412.536 743.943,386.536C698.943,360.536 704.443,341.036 704.443,341.036ZM682.943,470.036C682.943,470.036 712.443,511.536 746.443,518.536C780.443,525.536 829.443,526.036 836.943,555.536C844.443,585.036 824.443,607.036 824.443,607.036C824.443,607.036 818.443,580.036 787.943,559.036C757.443,538.036 690.443,507.036 682.943,470.036ZM546.952,459.528L597.443,518.536L557.443,554.036L533.943,553.036L525.943,538.536L546.443,511.036L546.952,459.528ZM694.443,538.536C694.443,538.536 747.443,568.536 760.784,615.536C774.126,662.536 745.943,715.536 745.943,715.536C757.443,634.536 695.943,588.536 695.943,588.536L694.443,538.536ZM637.943,647.536C637.943,647.536 676.443,694.536 674.443,731.036C672.443,767.536 622.943,830.536 622.943,830.536L561.693,863.536C561.693,863.536 613.943,814.036 627.943,766.036C641.943,718.036 633.943,666.536 637.943,647.536Z"
        style="fill: rgb(254, 220, 0);"
    ></path>
    <path
        transform="matrix(0.900413,0,0,0.900413,66.7667,73.3054)"
        d="M481.15,130.089L481.137,242.536C449.009,223.536 432.852,178.536 432.852,130.089C432.852,81.642 417.264,62.536 417.264,62.536C417.264,62.536 481.154,92.536 481.15,130.089ZM481.15,130.089C481.145,92.536 545.035,62.536 545.035,62.536C545.035,62.536 529.447,81.642 529.447,130.089C529.447,178.536 513.291,223.536 481.163,242.536L481.15,130.089ZM392.647,329.502L387.685,358.286L351.685,367.786L286.685,374.286L298.185,340.786L392.375,329.324L391.171,328.536L391.171,302.536L456.264,336.536L465.979,285.036L479.33,343.536L454.34,369.858L392.647,329.502ZM665.851,340.786L677.351,374.286L612.351,367.786L576.351,358.286L571.351,329.286L665.851,340.786ZM284.264,489.458C284.264,489.458 265.264,537.036 226.264,570.036C187.264,603.036 124.173,672.036 132.718,694.036C132.718,694.036 101.264,626.036 162.264,560.036C223.264,494.036 272.264,506.881 284.264,489.458ZM262.264,591.747C262.264,591.747 325.264,572.036 284.264,627.036C243.264,682.036 258.264,763.036 258.264,763.036C153.264,695.036 262.264,591.747 262.264,591.747ZM326.264,642.036C332.264,691.036 362.264,726.036 383.264,773.036C404.264,820.036 461.264,900.036 461.264,900.036C461.264,900.036 432.264,898.036 405.264,874.036C378.264,850.036 348.264,814.036 330.264,763.036C312.264,712.036 326.264,642.036 326.264,642.036ZM212.264,242.536C212.264,242.536 263.264,198.536 348.264,242.536L356.264,253.536L346.264,271.536L296.264,278.536L237.264,277.536L212.264,242.536ZM295.264,316.036C295.264,316.036 289.264,392.036 245.264,414.036C201.264,436.036 159.264,464.036 159.264,464.036L136.264,466.036C136.264,466.036 116.264,439.036 171.264,407.036C226.264,375.036 256.264,363.036 257.264,328.036L295.264,316.036ZM678.035,489.458C690.035,506.881 739.035,494.036 800.035,560.036C861.035,626.036 829.581,694.036 829.581,694.036C838.127,672.036 775.035,603.036 736.035,570.036C697.035,537.036 678.035,489.458 678.035,489.458ZM700.035,591.747C700.035,591.747 809.035,695.036 704.035,763.036C704.035,763.036 719.035,682.036 678.035,627.036C637.035,572.036 700.035,591.747 700.035,591.747ZM636.035,642.036C636.035,642.036 650.035,712.036 632.035,763.036C614.035,814.036 584.035,850.036 557.035,874.036C530.035,898.036 501.035,900.036 501.035,900.036C501.035,900.036 558.035,820.036 579.035,773.036C600.035,726.036 630.035,691.036 636.035,642.036ZM482.97,343.536L493.32,283.536L509.035,332.536L571.129,302.536L571.129,328.536L505.123,366.87L482.97,343.536ZM750.035,242.536L725.035,277.536L666.035,278.536L616.035,271.536L606.035,253.536L614.035,242.536C699.035,198.536 750.035,242.536 750.035,242.536ZM667.035,316.036L705.035,328.036C706.035,363.036 736.035,375.036 791.035,407.036C846.035,439.036 826.035,466.036 826.035,466.036L803.035,464.036C803.035,464.036 761.035,436.036 717.035,414.036C673.035,392.036 667.035,316.036 667.035,316.036Z"
        style="fill: rgb(248, 150, 41);"
    ></path>
    <path
        transform="matrix(0.900413,0,0,0.900413,64.3622,73.3054)"
        d="M475,93.75C463.759,73.438 441.307,66.369 441.307,66.369C454.64,46.369 454.64,16.369 454.64,16.369C469.206,22.252 483.82,50.41 483.82,80.423C483.82,50.41 498.434,22.252 513,16.369C513,16.369 513,46.369 526.333,66.369C526.333,66.369 503.881,73.438 492.64,93.75C492.634,110.957 489.437,117.973 486.417,120.763C486.434,121.294 486.459,121.829 486.491,122.369C486.491,122.369 485.366,122.761 483.82,122.299C482.274,122.761 481.15,122.369 481.15,122.369C481.182,121.829 481.206,121.294 481.224,120.763C478.204,117.973 475.006,110.957 475,93.75ZM483.82,259.504C482.279,260.07 481.15,260.369 481.15,260.369C440.992,258.369 387.974,171.036 359.974,138.369C331.974,105.703 305.307,86.369 305.307,86.369C351.974,64.369 399.307,111.703 413.974,146.369C428.64,181.036 455.974,233.703 481.15,243.703C482.112,244.085 483.001,244.462 483.82,244.835C484.64,244.462 485.528,244.085 486.491,243.703C511.667,233.703 539,181.036 553.667,146.369C568.333,111.703 615.667,64.369 662.333,86.369C662.333,86.369 635.667,105.703 607.667,138.369C579.667,171.036 526.648,258.369 486.491,260.369C486.491,260.369 485.361,260.07 483.82,259.504ZM312.593,644.77C323.692,635.365 329.991,632.369 329.991,632.369C329.991,632.369 327.307,651.703 305.307,695.703C283.307,739.703 313.307,791.036 345.307,825.036C345.307,825.036 281.307,812.369 268.64,769.703C262.253,748.186 262.616,727.687 267.503,709.488L255.974,726.036C255.974,726.036 269.974,744.703 250.64,722.703C231.307,700.703 241.974,642.036 263.307,617.369C284.64,592.703 317.974,566.703 317.974,566.703L345.307,556.036L341.307,602.036L312.64,644.703L312.593,644.77ZM370.64,249.036C371.307,289.036 362.64,310.369 330.64,335.036C298.64,359.703 312.64,373.703 312.64,373.703L289.307,373.036L297.974,324.369L370.64,249.036ZM354.64,556.036L357.307,542.703L407.974,556.036C407.974,556.036 385.64,589.036 403.974,607.369C422.307,625.703 472.64,598.036 472.64,598.036L471.307,620.036L482,632.369L393.974,677.369L384.64,654.703L355.307,621.369L354.64,556.036ZM378.64,441.703L354.64,482L345.307,482L319.307,446.369L319.307,397.703L378.64,441.703ZM655.047,644.77L655,644.703L626.333,602.036L622.333,556.036L649.667,566.703C649.667,566.703 683,592.703 704.333,617.369C725.667,642.036 736.333,700.703 717,722.703C697.667,744.703 711.667,726.036 711.667,726.036L700.137,709.488C705.024,727.687 705.388,748.186 699,769.703C686.333,812.369 622.333,825.036 622.333,825.036C654.333,791.036 684.333,739.703 662.333,695.703C640.333,651.703 637.649,632.369 637.649,632.369C637.649,632.369 643.948,635.365 655.047,644.77ZM597,249.036L669.667,324.369L678.333,373.036L655,373.703C655,373.703 669,359.703 637,335.036C605,310.369 596.333,289.036 597,249.036ZM613,556.036L612.333,621.369L583,654.703L573.667,677.369L485.64,632.369L496.333,620.036L495,598.036C495,598.036 545.333,625.703 563.667,607.369C582,589.036 559.667,556.036 559.667,556.036L610.333,542.703L613,556.036ZM589,441.703L648.333,397.703L648.333,446.369L622.333,482L613,482L589,441.703Z"
        style="fill: rgb(2, 178, 230);"
    ></path>
    <path
        transform="matrix(0.900413,0,0,0.900413,66.7667,73.3054)"
        d="M428.55,408.682L428.189,362.043C428.189,324.595 458.354,340.895 458.354,308.68C457.91,307.83 457.457,306.966 456.997,306.089C435.997,266.089 380.997,285.089 360.997,254.089C340.997,223.089 291.997,188.089 258.997,186.089C225.997,184.089 144.997,193.089 128.997,229.089C128.997,229.089 133.997,168.089 196.997,159.089C259.997,150.089 241.997,130.089 241.997,130.089C241.997,130.089 282.997,148.089 309.997,152.089C336.997,156.089 381.997,151.089 403.997,188.089C425.711,224.608 437.689,253.333 480.299,251.19L480.299,251.089C480.584,251.108 480.868,251.126 481.15,251.143C481.432,251.126 481.715,251.108 482,251.089L482,251.19C524.61,253.333 536.589,224.608 558.303,188.089C580.303,151.089 625.303,156.089 652.303,152.089C679.303,148.089 720.303,130.089 720.303,130.089C720.303,130.089 702.303,150.089 765.303,159.089C828.303,168.089 833.303,229.089 833.303,229.089C817.303,193.089 736.303,184.089 703.303,186.089C670.303,188.089 621.303,223.089 601.303,254.089C581.303,285.089 526.303,266.089 505.303,306.089C504.842,306.966 504.39,307.83 503.946,308.68C503.946,340.895 534.111,324.595 534.111,362.043L533.749,408.682C533.724,384.355 514.95,397.781 506.742,372.036L506.742,423.036C506.742,453.626 550.243,440.59 550.243,464.536L548.242,515.036L541.242,515.036L513.242,522.036L498.816,534.298L493.057,552.036L482,550.036L481.15,549.313L480.299,550.036L469.242,552.036L463.483,534.298L449.057,522.036L421.057,515.036L414.057,515.036L412.057,464.536C412.057,440.59 455.557,453.626 455.557,423.036L455.557,372.036C447.349,397.781 428.575,384.355 428.55,408.682ZM480.299,353.771C477.86,347.942 472.296,335.575 460.557,312.915L460.557,444.036C460.557,459.594 426.557,457.979 426.557,473.536L425.557,493C432.768,484.229 457.401,485.153 471.629,474.017C471.629,474.017 480.597,444.623 481.15,447.041C481.702,444.623 490.67,474.017 490.67,474.017C504.898,485.153 529.532,484.229 536.742,493L535.742,473.536C535.742,457.979 501.742,459.594 501.742,444.036L501.742,312.915C490.004,335.575 484.44,347.942 482,353.771L482,358.089C482,358.089 481.774,357.413 481.15,355.847C480.525,357.413 480.299,358.089 480.299,358.089L480.299,353.771ZM347.462,537.265L347.462,553.502L315.462,566.002L266.962,618.502C238.462,592.002 262.462,528.002 262.462,528.002L343.758,534.697L351.057,482L377.557,441.286L398.557,435.286L398.557,500L368.057,516.671L347.462,537.265ZM680.352,398.849L649.057,448.286L649.057,399.286L659.557,378.286L679.294,391.033C679.116,389.34 678.964,387.61 678.837,385.839C678.837,385.839 709.837,420.839 759.337,438.839C808.837,456.839 854.419,459.161 880.378,500C918.953,560.687 896.337,615.839 870.337,630.339C844.337,644.839 867.837,626.839 867.837,626.839C867.837,626.839 883.337,594.839 843.337,556.839C803.337,518.839 751.837,501.839 722.837,470.839C697.641,443.905 684.9,426.03 680.352,398.849ZM617.656,534.77L599.557,516.671L569.057,500L569.057,435.286L590.057,441.286L616.557,482L623.796,534.265L699.837,528.002C699.837,528.002 723.837,592.002 695.337,618.502L646.837,566.002L614.837,553.502L614.837,535.002L617.656,534.77ZM308.057,378.286L318.557,399.286L318.557,448.286L284.057,393.786L308.057,378.286ZM481.15,900.438L465.462,903.252C425.962,869.719 378.462,815.752 366.962,779.752C355.462,743.752 338.962,735.752 326.462,698.252C313.962,660.752 341.462,610.252 341.462,610.252C341.462,610.252 341.962,645.786 347.462,684.286C352.962,722.786 392.462,736.286 403.962,765.286C415.462,794.286 464.962,872.286 472.962,884.786C477.803,892.35 480.095,896.435 481.15,898.482C482.205,896.435 484.496,892.35 489.337,884.786C497.337,872.286 546.837,794.286 558.337,765.286C569.837,736.286 609.337,722.786 614.837,684.286C620.337,645.786 620.837,610.252 620.837,610.252C620.837,610.252 648.337,660.752 635.837,698.252C623.337,735.752 606.837,743.752 595.337,779.752C583.837,815.752 536.337,869.719 496.837,903.252L481.15,900.438ZM277.997,267.089L269.962,304.839C269.962,304.839 233.462,335.839 200.962,371.839C168.462,407.839 133.462,411.339 94.462,419.839C55.462,428.339 55.462,456.339 55.462,456.339C45.462,434.839 53.962,392.839 101.462,386.339C148.962,379.839 166.997,358.089 166.997,358.089L194.997,333.089C194.997,333.089 171.997,319.089 155.997,296.089C139.997,273.089 152.997,221.089 200.997,221.089C248.997,221.089 277.997,267.089 277.997,267.089ZM283.462,385.839C280.962,420.839 268.462,439.839 239.462,470.839C210.462,501.839 158.962,518.839 118.962,556.839C78.962,594.839 94.462,626.839 94.462,626.839C94.462,626.839 117.962,644.839 91.962,630.339C65.962,615.839 43.346,560.687 81.921,500C107.881,459.161 153.462,456.839 202.962,438.839C252.462,420.839 283.462,385.839 283.462,385.839ZM684.303,267.089C684.303,267.089 713.303,221.089 761.303,221.089C809.303,221.089 822.303,273.089 806.303,296.089C790.303,319.089 767.303,333.089 767.303,333.089L795.303,358.089C795.303,358.089 813.337,379.839 860.837,386.339C908.337,392.839 916.837,434.839 906.837,456.339C906.837,456.339 906.837,428.339 867.837,419.839C828.837,411.339 793.837,407.839 761.337,371.839C728.837,335.839 692.337,304.839 692.337,304.839L684.303,267.089ZM213.172,601.536C171.172,710.536 219.172,819.536 219.172,819.536C65.172,741.536 213.172,601.536 213.172,601.536ZM747.128,596.536C747.128,596.536 897.128,741.536 743.128,819.536C743.128,819.536 789.128,705.536 747.128,596.536Z"
        style="fill: rgb(254, 7, 83);"
    ></path>
    <path
        transform="matrix(0.900413,0,0,0.900413,332.672,73.3054)"
        d="M180.962,627.339C180.962,627.339 136.462,679.339 140.462,710.339C144.462,741.339 158.962,793.339 231.462,826.839C231.462,826.839 166.962,703.426 210.462,603.839L180.962,627.339Z"
        style="fill: none;"
    ></path>
    <path
        transform="matrix(0.900413,0,0,0.900413,66.0011,73.3054)"
        d="M446.126,840.016C427.255,805.418 401.278,753.342 393.101,715.339L482,796.036L570.899,715.339C562.722,753.342 536.745,805.418 517.874,840.016L518.435,840.703L516.917,841.767C505.49,862.627 496.899,876.703 496.899,876.703L482,866.254L467.101,876.703C467.101,876.703 458.51,862.627 447.083,841.767L445.565,840.703L446.126,840.016ZM153.101,301.37L211.101,342.703C136.435,359.37 81.921,348.036 81.921,348.036C111.408,346.703 153.101,301.37 153.101,301.37ZM284.435,384.036L302.435,420.703L348.435,481.286L351.101,542.036C351.101,542.036 259.101,495.37 284.435,384.036ZM810.899,301.37C810.899,301.37 852.592,346.703 882.079,348.036C882.079,348.036 827.565,359.37 752.899,342.703L810.899,301.37ZM679.565,384.036C704.899,495.37 612.899,542.036 612.899,542.036L615.565,481.286L661.565,420.703L679.565,384.036Z"
        style="fill: rgb(110, 0, 247);"
    ></path>
    <path
        transform="matrix(0.90921,0,0,0.900413,64.0253,73.3054)"
        d="M403.768,397.87C403.768,397.87 364.435,423.87 311.768,385.87L313.101,374.286L373.768,366.536C373.768,366.536 381.768,385.203 403.768,397.87ZM561.101,397.87C583.101,385.203 591.101,366.536 591.101,366.536L651.768,374.286L653.101,385.87C600.435,423.87 561.101,397.87 561.101,397.87Z"
        style="fill: rgb(204, 195, 44);"
    ></path>
    <path
        transform="matrix(0.886959,0,0,0.886959,75.1561,83.2251)"
        d="M476.635,928.987C445.871,902.311 342.755,859.173 282.853,813.851C218.75,765.351 233.456,680.101 282.853,644.101C332.25,608.101 336.456,574.601 336.456,574.601C287.956,584.101 258.956,619.601 258.956,619.601C267.245,589.707 284.296,562.317 329.956,543.101C218.956,531.601 197.206,630.351 197.206,695.351C197.206,760.351 229.206,791.851 267.706,826.351C306.206,860.851 358.206,898.851 358.206,898.851C358.206,898.851 309.206,882.351 244.066,846.851C178.927,811.351 178.206,747.601 178.206,710.101C178.206,672.601 190.206,634.351 190.206,634.351C138.206,699.851 162.706,757.582 162.706,757.582C119.706,711.813 131.706,682.082 131.706,682.082C139.206,610.082 184.706,614.582 227.206,550.582C269.706,486.582 274.206,437.082 274.206,437.082C274.206,437.082 263.706,463.082 219.706,489.082C175.706,515.082 140.206,549.582 116.206,594.082C92.206,638.582 113.706,691.582 113.706,691.582C113.706,691.582 73.706,650.582 73.706,598.582C73.706,546.582 124.706,515.082 183.706,491.582C242.706,468.082 267.706,410.082 267.706,410.082C247.706,425.582 192.206,436.582 192.206,436.582C192.206,436.582 242.706,410.582 264.706,384.082C277.199,369.032 283.404,350.113 286.434,336.572C271.84,345.268 255.774,351.226 237.206,354.582C195.706,362.082 194.706,371.332 154.206,387.332C113.706,403.332 92.206,378.832 92.206,378.832C121.706,378.832 145.706,356.832 145.706,356.832C99.206,360.332 83.706,343.332 83.706,343.332C115.706,350.832 171.206,329.332 171.206,329.332C135.706,323.332 97.206,278.332 120.206,223.332C143.206,168.332 224.519,169.832 224.519,169.832C196.52,150.332 154.519,167.832 154.519,167.832C161.019,152.832 187.519,116.832 236.019,120.832C284.519,124.832 305.52,187.832 348.02,196.332C390.52,204.832 411.519,227.832 411.519,227.832C411.519,227.832 403.02,212.332 394.52,189.332C386.019,166.332 354.019,134.832 334.019,129.832C314.019,124.832 290.019,118.332 270.019,99.832C250.019,81.332 214.519,100.332 214.519,100.332C214.519,100.332 229.519,73.832 276.519,73.832C323.519,73.832 372.519,128.332 401.519,179.832C426.236,223.725 461.185,235.851 460.52,235.332C435.52,215.832 419.52,174.332 399.019,117.332C378.519,60.332 326.019,54.832 326.019,54.832C405.019,57.832 414.019,122.832 430.02,163.332C446.02,203.832 471.519,221.332 471.519,221.332L471.519,151.832C471.519,116.332 465.02,100.832 426.519,76.832C388.019,52.832 391.02,21.904 391.02,21.904C412.025,41.187 468.171,51.565 479.853,81.761C491.534,51.565 547.68,41.187 568.686,21.904C568.686,21.904 571.686,52.832 533.186,76.832C494.686,100.832 488.186,116.332 488.186,151.832L488.186,221.332C488.186,221.332 513.686,203.832 529.686,163.332C545.686,122.832 554.686,57.832 633.686,54.832C633.686,54.832 581.186,60.332 560.686,117.332C540.186,174.332 524.186,215.832 499.186,235.332C498.52,235.851 533.469,223.725 558.186,179.832C587.186,128.332 636.186,73.832 683.186,73.832C730.186,73.832 745.186,100.332 745.186,100.332C745.186,100.332 709.686,81.332 689.686,99.832C669.686,118.332 645.686,124.832 625.686,129.832C605.686,134.832 573.686,166.332 565.186,189.332C556.686,212.332 548.186,227.832 548.186,227.832C548.186,227.832 569.186,204.832 611.686,196.332C654.186,187.832 675.186,124.832 723.686,120.832C772.186,116.832 798.686,152.832 805.186,167.832C805.186,167.832 763.186,150.332 735.186,169.832C735.186,169.832 816.5,168.332 839.5,223.332C862.5,278.332 824,323.332 788.5,329.332C788.5,329.332 844,350.832 876,343.332C876,343.332 860.5,360.332 814,356.832C814,356.832 838,378.832 867.5,378.832C867.5,378.832 846,403.332 805.5,387.332C765,371.332 764,362.082 722.5,354.582C703.931,351.226 687.865,345.268 673.272,336.572C676.301,350.113 682.506,369.032 695,384.082C717,410.582 767.5,436.582 767.5,436.582C767.5,436.582 712,425.582 692,410.082C692,410.082 717,468.082 776,491.582C835,515.082 886,546.582 886,598.582C886,650.582 846,691.582 846,691.582C846,691.582 867.5,638.582 843.5,594.082C819.5,549.582 784,515.082 740,489.082C696,463.082 685.5,437.082 685.5,437.082C685.5,437.082 690,486.582 732.5,550.582C775,614.582 820.5,610.082 828,682.082C828,682.082 840,711.813 797,757.582C797,757.582 821.5,699.851 769.5,634.351C769.5,634.351 781.5,672.601 781.5,710.101C781.5,747.601 780.778,811.351 715.639,846.851C650.5,882.351 601.5,898.851 601.5,898.851C601.5,898.851 653.5,860.851 692,826.351C730.5,791.851 762.5,760.351 762.5,695.351C762.5,630.351 740.75,531.601 629.75,543.101C675.409,562.317 692.461,589.707 700.75,619.601C700.75,619.601 671.75,584.101 623.25,574.601C623.25,574.601 627.455,608.101 676.853,644.101C726.25,680.101 740.955,765.351 676.853,813.851C616.95,859.173 513.835,902.311 483.07,928.987C482.988,932.463 482,934.351 482,934.351C481.364,933.58 480.647,932.792 479.853,931.986C479.058,932.792 478.341,933.58 477.705,934.351C477.705,934.351 476.718,932.463 476.635,928.987ZM477.705,345.331C470.404,317.714 467.365,268.433 442.206,253.082C412.706,235.082 394.706,239.082 394.706,239.082C413.206,243.082 416.706,255.582 416.706,255.582C391.206,242.582 363.706,256.582 335.706,291.582C335.2,292.214 334.694,292.842 334.187,293.464C315.447,321.197 291.456,355.214 291.456,355.214L318.456,356.214L354.406,353.564L385.206,344.964L414.606,364.964L416.606,424.364L397.806,390.564C397.806,390.564 364.406,396.964 354.606,368.764L282.853,387.601C267.75,471.237 338.956,523.351 338.956,523.351L338.956,482C284.456,450.149 292.456,409.351 292.456,409.351L352.456,473.351L352.456,529.851L368.456,521.851L352.956,554.351C352.956,586.351 362.956,635.851 402.456,635.851C429.142,635.851 456.078,612.343 470.744,597.092L470.084,593.839L470.084,552.176L456.872,538.964L436.997,538.964L411.372,513.339L411.372,491.839L424.622,502.589L455.372,502.589L471.622,516.589L471.622,532.089L479.853,539.291L488.084,532.089L488.084,516.589L504.334,502.589L535.084,502.589L548.334,491.839L548.334,513.339L522.709,538.964L502.834,538.964L489.622,552.176L489.622,593.839L488.961,597.092C503.628,612.343 530.563,635.851 557.25,635.851C596.75,635.851 606.75,586.351 606.75,554.351L591.25,521.851L607.25,529.851L607.25,473.351L667.25,409.351C667.25,409.351 675.25,450.149 620.75,482L620.75,523.351C620.75,523.351 691.955,471.237 676.853,387.601L605.1,368.764C595.3,396.964 561.9,390.564 561.9,390.564L543.1,424.364L545.1,364.964L574.5,344.964L605.3,353.564L641.25,356.214L668.25,355.214C668.25,355.214 644.259,321.197 625.519,293.464C625.012,292.842 624.506,292.214 624,291.582C596,256.582 568.5,242.582 543,255.582C543,255.582 546.5,243.082 565,239.082C565,239.082 547,235.082 517.5,253.082C492.34,268.433 489.301,317.714 482,345.331C482,345.331 480.521,354.23 479.853,352.37C479.185,354.23 477.705,345.331 477.705,345.331ZM479.853,627.425C451.772,628.917 427.619,650.607 396.449,654.69C394.811,667.554 397.155,690.811 424.747,717.089C424.747,717.089 417.664,708.822 416.645,679.819C417.019,685.567 420.748,710.333 456.747,730.089C456.747,730.089 441.247,714.589 445.247,683.089C445.247,683.089 446.691,703.947 479.853,725.355C513.014,703.947 514.459,683.089 514.459,683.089C518.459,714.589 502.959,730.089 502.959,730.089C538.958,710.333 542.687,685.567 543.061,679.819C542.042,708.822 534.959,717.089 534.959,717.089C562.55,690.811 564.895,667.554 563.256,654.69C532.086,650.607 507.933,628.917 479.853,627.425ZM479.853,812.95L394.122,717.589C394.122,717.589 406.247,767.339 433.747,801.839C451.291,823.849 469.191,843.01 479.853,853.999C490.514,843.01 508.414,823.849 525.959,801.839C553.459,767.339 565.584,717.589 565.584,717.589L479.853,812.95ZM416.645,679.819C416.593,679.02 416.606,678.589 416.606,678.589C416.617,679.003 416.63,679.413 416.645,679.819ZM543.061,679.819C543.075,679.413 543.088,679.003 543.1,678.589C543.1,678.589 543.113,679.02 543.061,679.819ZM616,245.082C657.292,254.702 703.069,196.439 737.406,203.408C708.849,215.861 693.112,231.518 693,251.082C711.646,235.483 726.564,231.007 738.029,232.467C802.683,240.695 768.5,319.082 768.5,319.082C803,314.582 839.5,246.582 794,207.329C748.5,168.077 688.5,183.582 666,207.329C643.5,231.077 616,245.082 616,245.082ZM494.109,898.275C505.343,887.864 523.534,875.674 552.75,862.351C643.75,820.851 685.75,754.101 685.75,719.601C685.75,685.101 619.75,643.851 616,615.351C616,615.351 611.996,643.203 589.172,652.425C600.162,705.639 579.337,728.668 565.459,758.339C550.959,789.339 540.959,834.339 514.959,864.839C503.481,878.303 497.363,889.72 494.109,898.275ZM465.597,898.275C462.343,889.72 456.224,878.303 444.747,864.839C418.747,834.339 408.747,789.339 394.247,758.339C380.368,728.668 359.544,705.639 370.534,652.425C347.709,643.203 343.706,615.351 343.706,615.351C339.956,643.851 273.956,685.101 273.956,719.601C273.956,754.101 315.956,820.851 406.956,862.351C436.171,875.674 454.363,887.864 465.597,898.275ZM343.706,245.082C343.706,245.082 316.206,231.077 293.706,207.329C271.206,183.582 211.206,168.077 165.706,207.329C120.206,246.582 156.706,314.582 191.206,319.082C191.206,319.082 157.023,240.695 221.677,232.467C233.142,231.007 248.059,235.483 266.706,251.082C266.593,231.518 250.856,215.861 222.299,203.408C256.636,196.439 302.414,254.702 343.706,245.082Z"
        style="fill: rgb(26, 30, 68);"
    ></path>
</svg>